<svg width="20" height="17" viewBox="0 0 20 17" fill="none" xmlns="http://www.w3.org/2000/svg">
<path fill-rule="evenodd" clip-rule="evenodd" d="M17.0615 8.5C17.0615 13.1944 13.256 17 8.56153 17C3.86711 17 0.0615311 13.1944 0.0615311 8.5C0.0615311 3.80558 3.86711 0 8.56153 0C13.256 0 17.0615 3.80558 17.0615 8.5ZM8.56153 13.8615C11.5226 13.8615 13.9231 11.4611 13.9231 8.5C13.9231 5.5389 11.5226 3.13846 8.56153 3.13846C5.60044 3.13846 3.19999 5.5389 3.19999 8.5C3.19999 11.4611 5.60044 13.8615 8.56153 13.8615Z" fill="#555DA4"/>
<path fill-rule="evenodd" clip-rule="evenodd" d="M19.9384 8.5C19.9384 13.1944 16.1329 17 11.4384 17C6.74402 17 2.93844 13.1944 2.93844 8.5C2.93844 3.80558 6.74402 0 11.4384 0C16.1329 0 19.9384 3.80558 19.9384 8.5ZM11.4384 13.8615C14.3995 13.8615 16.8 11.4611 16.8 8.5C16.8 5.5389 14.3995 3.13846 11.4384 3.13846C8.47735 3.13846 6.0769 5.5389 6.0769 8.5C6.0769 11.4611 8.47735 13.8615 11.4384 13.8615Z" fill="#70C6EE"/>
<path fill-rule="evenodd" clip-rule="evenodd" d="M19.9384 8.5C19.9384 13.1944 16.1329 17 11.4384 17C6.74402 17 2.93844 13.1944 2.93844 8.5C2.93844 3.80558 6.74402 0 11.4384 0C16.1329 0 19.9384 3.80558 19.9384 8.5ZM11.4384 13.8615C14.3995 13.8615 16.8 11.4611 16.8 8.5C16.8 5.5389 14.3995 3.13846 11.4384 3.13846C8.47735 3.13846 6.0769 5.5389 6.0769 8.5C6.0769 11.4611 8.47735 13.8615 11.4384 13.8615Z" fill="#78D4FF"/>
<path fill-rule="evenodd" clip-rule="evenodd" d="M17.0615 8.5C17.0615 10.1851 16.5712 11.7558 15.7253 13.0769C14.7217 14.6445 13.2176 15.861 11.4385 16.5008C10.54 16.8239 9.57131 17 8.56153 17C3.86711 17 0.0615311 13.1944 0.0615311 8.5C0.0615311 3.80558 3.86711 0 8.56153 0C13.256 0 17.0615 3.80558 17.0615 8.5ZM8.56153 13.8615C11.5226 13.8615 13.9231 11.4611 13.9231 8.5C13.9231 5.5389 11.5226 3.13846 8.56153 3.13846C5.60044 3.13846 3.19999 5.5389 3.19999 8.5C3.19999 10.1705 3.96394 11.6625 5.16153 12.6458C6.0868 13.4055 7.27091 13.8615 8.56153 13.8615Z" fill="#2E67EA"/>
<path fill-rule="evenodd" clip-rule="evenodd" d="M11.5692 17C16.1914 17 19.9385 13.1944 19.9385 8.5H17.1098C17.1098 11.4611 14.4848 13.8615 11.5692 13.8615C8.6537 13.8615 6.02864 11.4611 6.02864 8.5H3.2C3.2 13.1944 6.94704 17 11.5692 17Z" fill="#78D4FF"/>
</svg>
