<svg width="78" height="18" viewBox="0 0 78 18" fill="none" xmlns="http://www.w3.org/2000/svg">
<path fill-rule="evenodd" clip-rule="evenodd" d="M17.7414 9C17.7414 13.6944 13.9358 17.5 9.2414 17.5C4.54698 17.5 0.741398 13.6944 0.741398 9C0.741398 4.30558 4.54698 0.5 9.2414 0.5C13.9358 0.5 17.7414 4.30558 17.7414 9ZM9.2414 14.3615C12.2025 14.3615 14.6029 11.9611 14.6029 9C14.6029 6.0389 12.2025 3.63846 9.2414 3.63846C6.2803 3.63846 3.87986 6.0389 3.87986 9C3.87986 11.9611 6.2803 14.3615 9.2414 14.3615Z" fill="#555DA4"/>
<path fill-rule="evenodd" clip-rule="evenodd" d="M20.6183 9C20.6183 13.6944 16.8127 17.5 12.1183 17.5C7.42389 17.5 3.61831 13.6944 3.61831 9C3.61831 4.30558 7.42389 0.5 12.1183 0.5C16.8127 0.5 20.6183 4.30558 20.6183 9ZM12.1183 14.3615C15.0794 14.3615 17.4798 11.9611 17.4798 9C17.4798 6.0389 15.0794 3.63846 12.1183 3.63846C9.15721 3.63846 6.75677 6.0389 6.75677 9C6.75677 11.9611 9.15721 14.3615 12.1183 14.3615Z" fill="#70C6EE"/>
<path fill-rule="evenodd" clip-rule="evenodd" d="M20.6183 9C20.6183 13.6944 16.8127 17.5 12.1183 17.5C7.42389 17.5 3.61831 13.6944 3.61831 9C3.61831 4.30558 7.42389 0.5 12.1183 0.5C16.8127 0.5 20.6183 4.30558 20.6183 9ZM12.1183 14.3615C15.0794 14.3615 17.4798 11.9611 17.4798 9C17.4798 6.0389 15.0794 3.63846 12.1183 3.63846C9.15721 3.63846 6.75677 6.0389 6.75677 9C6.75677 11.9611 9.15721 14.3615 12.1183 14.3615Z" fill="#78D4FF"/>
<path fill-rule="evenodd" clip-rule="evenodd" d="M17.7414 9C17.7414 10.6851 17.251 12.2558 16.4052 13.5769C15.4015 15.1445 13.8975 16.361 12.1183 17.0008C11.2198 17.3239 10.2512 17.5 9.2414 17.5C4.54698 17.5 0.741398 13.6944 0.741398 9C0.741398 4.30558 4.54698 0.5 9.2414 0.5C13.9358 0.5 17.7414 4.30558 17.7414 9ZM9.2414 14.3615C12.2025 14.3615 14.6029 11.9611 14.6029 9C14.6029 6.0389 12.2025 3.63846 9.2414 3.63846C6.2803 3.63846 3.87986 6.0389 3.87986 9C3.87986 10.6705 4.64381 12.1625 5.8414 13.1458C6.76666 13.9055 7.95078 14.3615 9.2414 14.3615Z" fill="#2E67EA"/>
<path fill-rule="evenodd" clip-rule="evenodd" d="M12.2491 17.5C16.8713 17.5 20.6183 13.6944 20.6183 9H17.7897C17.7897 11.9611 15.1646 14.3615 12.2491 14.3615C9.33356 14.3615 6.70851 11.9611 6.70851 9H3.87987C3.87987 13.6944 7.6269 17.5 12.2491 17.5Z" fill="#78D4FF"/>
<rect x="28.6183" y="1" width="1" height="16" fill="#2E67EA"/>
<path d="M56.7318 16.6218L52.5878 1.33211H55.9327L58.33 11.9558H58.4503L61.0951 1.33211H63.9591L66.5969 11.9782H66.7242L69.1215 1.33211H72.4664L68.3224 16.6218H65.3381L62.5801 6.62528H62.467L59.7161 16.6218H56.7318Z" fill="url(#paint0_linear_1051_3191)"/>
<path d="M39.6183 3.99736V1.33211H51.5129V3.99736H47.079V16.6218H44.0523V3.99736H39.6183Z" fill="url(#paint1_linear_1051_3191)"/>
<path d="M73.3625 16.6679C72.841 16.6679 72.3934 16.4685 72.0194 16.0698C71.6507 15.6654 71.4664 15.1813 71.4664 14.6174C71.4664 14.0592 71.6507 13.5807 72.0194 13.182C72.3934 12.7833 72.841 12.5839 73.3625 12.5839C73.8681 12.5839 74.3105 12.7833 74.6898 13.182C75.069 13.5807 75.2586 14.0592 75.2586 14.6174C75.2586 14.9933 75.1691 15.3379 74.99 15.6512C74.8162 15.9587 74.5871 16.2065 74.3026 16.3945C74.0182 16.5767 73.7048 16.6679 73.3625 16.6679Z" fill="url(#paint2_linear_1051_3191)"/>
<defs>
<linearGradient id="paint0_linear_1051_3191" x1="53.1876" y1="-5.18804" x2="67.0519" y2="17.3142" gradientUnits="userSpaceOnUse">
<stop stop-color="#78D4FF"/>
<stop offset="1" stop-color="#2A5DD3"/>
</linearGradient>
<linearGradient id="paint1_linear_1051_3191" x1="39.9772" y1="-5.18804" x2="55.4928" y2="9.88011" gradientUnits="userSpaceOnUse">
<stop stop-color="#78D4FF"/>
<stop offset="1" stop-color="#2A5DD3"/>
</linearGradient>
<linearGradient id="paint2_linear_1051_3191" x1="71.5808" y1="10.8424" x2="75.3495" y2="12.7572" gradientUnits="userSpaceOnUse">
<stop stop-color="#1A56DB"/>
<stop offset="1" stop-color="#5BA7EF"/>
</linearGradient>
</defs>
</svg>
